<mxfile host="app.diagrams.net" modified="2024-06-04T04:24:07.859Z" agent="Mozilla/5.0 (Windows NT 10.0; Win64; x64) AppleWebKit/537.36 (KHTML, like Gecko) Chrome/124.0.0.0 Safari/537.36" etag="jGDfrd8G7Q-IHaEkz_fZ" version="24.4.13" type="device">
  <diagram id="QJjx0-fPxzvcmYibJWj1" name="Page-1">
    <mxGraphModel dx="965" dy="1111" grid="1" gridSize="10" guides="1" tooltips="1" connect="1" arrows="1" fold="1" page="1" pageScale="1" pageWidth="827" pageHeight="583" math="0" shadow="0">
      <root>
        <mxCell id="0" />
        <mxCell id="1" parent="0" />
        <mxCell id="hZlWTmnkjhMwvSSbGk0G-101" value="" style="shape=cube;whiteSpace=wrap;html=1;boundedLbl=1;backgroundOutline=1;darkOpacity=0.05;darkOpacity2=0.1;size=110;direction=east;flipH=1;fontFamily=Georgia;shadow=0;fontColor=#000000;" parent="1" vertex="1">
          <mxGeometry x="385" y="-63.5" width="125" height="210" as="geometry" />
        </mxCell>
        <mxCell id="21" value="" style="shape=cube;whiteSpace=wrap;html=1;boundedLbl=1;backgroundOutline=1;darkOpacity=0.05;darkOpacity2=0.1;size=110;direction=east;flipH=1;fontFamily=Georgia;shadow=0;fontColor=#000000;" parent="1" vertex="1">
          <mxGeometry x="370" y="154.75" width="125" height="210" as="geometry" />
        </mxCell>
        <mxCell id="4f-DMQIj-ya-iA7LCkDa-1" value="" style="shape=cube;whiteSpace=wrap;html=1;boundedLbl=1;backgroundOutline=1;darkOpacity=0.05;darkOpacity2=0.1;size=110;direction=east;flipH=1;fillColor=default;strokeColor=default;fontFamily=Georgia;fontColor=#000000;" parent="1" vertex="1">
          <mxGeometry x="401" y="160.18" width="129" height="210" as="geometry" />
        </mxCell>
        <mxCell id="4f-DMQIj-ya-iA7LCkDa-20" value="" style="shape=cube;whiteSpace=wrap;html=1;boundedLbl=1;backgroundOutline=1;darkOpacity=0.05;darkOpacity2=0.1;size=3;direction=east;flipH=1;fillColor=default;strokeColor=default;fontFamily=Georgia;fontColor=default;" parent="1" vertex="1">
          <mxGeometry x="933" y="111.36000000000001" width="65" height="8" as="geometry" />
        </mxCell>
        <mxCell id="jZx25Ely4Z8WffF3_oc5-65" style="edgeStyle=orthogonalEdgeStyle;rounded=0;orthogonalLoop=1;jettySize=auto;html=1;exitX=0;exitY=0;exitDx=17.5;exitDy=0;exitPerimeter=0;entryX=0;entryY=0.5;entryDx=0;entryDy=0;endArrow=none;endFill=0;" edge="1" parent="1" source="4f-DMQIj-ya-iA7LCkDa-27" target="jZx25Ely4Z8WffF3_oc5-64">
          <mxGeometry relative="1" as="geometry" />
        </mxCell>
        <mxCell id="4f-DMQIj-ya-iA7LCkDa-27" value="" style="shape=cube;whiteSpace=wrap;html=1;boundedLbl=1;backgroundOutline=1;darkOpacity=0.05;darkOpacity2=0.1;size=3;direction=east;flipH=1;fillColor=default;strokeColor=default;fontFamily=Georgia;fontColor=#000000;" parent="1" vertex="1">
          <mxGeometry x="1152" y="109.49000000000001" width="38" height="8" as="geometry" />
        </mxCell>
        <mxCell id="4f-DMQIj-ya-iA7LCkDa-50" value="Блок 1 - CNN + LeakyReLU" style="text;html=1;strokeColor=none;fillColor=none;align=left;verticalAlign=middle;whiteSpace=wrap;rounded=0;fontStyle=1;fontFamily=Georgia;" parent="1" vertex="1">
          <mxGeometry x="930" y="213.88" width="207" height="23.88" as="geometry" />
        </mxCell>
        <mxCell id="4f-DMQIj-ya-iA7LCkDa-51" value="Блок 2 - MaxPooling1D + BatchNormalization + Dropout (0.2)" style="text;html=1;strokeColor=none;fillColor=none;align=left;verticalAlign=middle;whiteSpace=wrap;rounded=0;fontStyle=1;fontFamily=Georgia;" parent="1" vertex="1">
          <mxGeometry x="930" y="237.76" width="410" height="23.88" as="geometry" />
        </mxCell>
        <mxCell id="4f-DMQIj-ya-iA7LCkDa-52" value="Блок 5 - fully connected + ReLU" style="text;html=1;strokeColor=none;fillColor=none;align=left;verticalAlign=middle;whiteSpace=wrap;rounded=0;fontStyle=1;fontFamily=Georgia;" parent="1" vertex="1">
          <mxGeometry x="930" y="320.75" width="294.5" height="23.88" as="geometry" />
        </mxCell>
        <mxCell id="4f-DMQIj-ya-iA7LCkDa-53" value="Блок 6 - fully connected + Softmax" style="text;html=1;strokeColor=none;fillColor=none;align=left;verticalAlign=middle;whiteSpace=wrap;rounded=0;fontStyle=1;fontFamily=Georgia;" parent="1" vertex="1">
          <mxGeometry x="927.5" y="352.38" width="324.5" height="23.88" as="geometry" />
        </mxCell>
        <mxCell id="34" value="&lt;span style=&quot;font-family: Georgia; font-size: 12px; font-style: normal; font-variant-ligatures: normal; font-variant-caps: normal; font-weight: 400; letter-spacing: normal; orphans: 2; text-align: center; text-indent: 0px; text-transform: none; widows: 2; word-spacing: 0px; -webkit-text-stroke-width: 0px; background-color: rgb(251, 251, 251); text-decoration-thickness: initial; text-decoration-style: initial; text-decoration-color: initial; float: none; display: inline !important;&quot;&gt;64 x 256&lt;/span&gt;" style="text;whiteSpace=wrap;html=1;fontSize=12;fontFamily=Georgia;fontColor=#000000;" parent="1" vertex="1">
          <mxGeometry x="944.5" y="115.74000000000001" width="54" height="40" as="geometry" />
        </mxCell>
        <mxCell id="35" value="&lt;span style=&quot;font-family: Georgia; font-size: 12px; font-style: normal; font-variant-ligatures: normal; font-variant-caps: normal; font-weight: 400; letter-spacing: normal; orphans: 2; text-align: center; text-indent: 0px; text-transform: none; widows: 2; word-spacing: 0px; -webkit-text-stroke-width: 0px; background-color: rgb(251, 251, 251); text-decoration-thickness: initial; text-decoration-style: initial; text-decoration-color: initial; float: none; display: inline !important;&quot;&gt;64 x 8&lt;/span&gt;" style="text;whiteSpace=wrap;html=1;fontSize=12;fontFamily=Georgia;fontColor=#000000;" parent="1" vertex="1">
          <mxGeometry x="1149" y="115.74000000000001" width="54" height="40" as="geometry" />
        </mxCell>
        <mxCell id="46" value="&lt;font style=&quot;font-size: 14px;&quot; face=&quot;Times New Roman&quot;&gt;&lt;b&gt;Тип модуляції&lt;/b&gt;&lt;/font&gt;" style="text;html=1;align=center;verticalAlign=middle;resizable=0;points=[];autosize=1;strokeColor=#666666;fillColor=#f5f5f5;fontSize=7;fontFamily=Georgia;fontColor=#333333;shadow=1;" parent="1" vertex="1">
          <mxGeometry x="1203" y="98.49000000000001" width="110" height="30" as="geometry" />
        </mxCell>
        <mxCell id="hZlWTmnkjhMwvSSbGk0G-48" value="" style="shape=cube;whiteSpace=wrap;html=1;boundedLbl=1;backgroundOutline=1;darkOpacity=0.05;darkOpacity2=0.1;size=3;direction=east;flipH=1;fillColor=default;strokeColor=default;fontFamily=Georgia;fontColor=#000000;" parent="1" vertex="1">
          <mxGeometry x="1008" y="110.36000000000001" width="47.5" height="8" as="geometry" />
        </mxCell>
        <mxCell id="hZlWTmnkjhMwvSSbGk0G-49" value="" style="shape=cube;whiteSpace=wrap;html=1;boundedLbl=1;backgroundOutline=1;darkOpacity=0.05;darkOpacity2=0.1;size=3;direction=east;flipH=1;fillColor=default;strokeColor=default;fontFamily=Georgia;fontColor=#000000;" parent="1" vertex="1">
          <mxGeometry x="1063.5" y="110.36000000000001" width="39" height="8" as="geometry" />
        </mxCell>
        <mxCell id="hZlWTmnkjhMwvSSbGk0G-50" value="" style="shape=cube;whiteSpace=wrap;html=1;boundedLbl=1;backgroundOutline=1;darkOpacity=0.05;darkOpacity2=0.1;size=3;direction=east;flipH=1;fillColor=default;strokeColor=default;fontFamily=Georgia;fontColor=#000000;" parent="1" vertex="1">
          <mxGeometry x="1108" y="109.49000000000001" width="38" height="8" as="geometry" />
        </mxCell>
        <mxCell id="hZlWTmnkjhMwvSSbGk0G-52" value="&lt;span style=&quot;font-family: Georgia; font-size: 12px; font-style: normal; font-variant-ligatures: normal; font-variant-caps: normal; font-weight: 400; letter-spacing: normal; orphans: 2; text-align: center; text-indent: 0px; text-transform: none; widows: 2; word-spacing: 0px; -webkit-text-stroke-width: 0px; background-color: rgb(251, 251, 251); text-decoration-thickness: initial; text-decoration-style: initial; text-decoration-color: initial; float: none; display: inline !important;&quot;&gt;64 x 128&lt;/span&gt;" style="text;whiteSpace=wrap;html=1;fontSize=12;fontFamily=Georgia;fontColor=#000000;" parent="1" vertex="1">
          <mxGeometry x="1014" y="116.87" width="54" height="40" as="geometry" />
        </mxCell>
        <mxCell id="hZlWTmnkjhMwvSSbGk0G-53" value="&lt;span style=&quot;font-family: Georgia; font-size: 12px; font-style: normal; font-variant-ligatures: normal; font-variant-caps: normal; font-weight: 400; letter-spacing: normal; orphans: 2; text-align: center; text-indent: 0px; text-transform: none; widows: 2; word-spacing: 0px; -webkit-text-stroke-width: 0px; background-color: rgb(251, 251, 251); text-decoration-thickness: initial; text-decoration-style: initial; text-decoration-color: initial; float: none; display: inline !important;&quot;&gt;64 x 64&lt;/span&gt;" style="text;whiteSpace=wrap;html=1;fontSize=12;fontFamily=Georgia;fontColor=#000000;" parent="1" vertex="1">
          <mxGeometry x="1063.5" y="117.18" width="54" height="40" as="geometry" />
        </mxCell>
        <mxCell id="hZlWTmnkjhMwvSSbGk0G-55" value="&lt;span style=&quot;font-family: Georgia; font-size: 12px; font-style: normal; font-variant-ligatures: normal; font-variant-caps: normal; font-weight: 400; letter-spacing: normal; orphans: 2; text-align: center; text-indent: 0px; text-transform: none; widows: 2; word-spacing: 0px; -webkit-text-stroke-width: 0px; background-color: rgb(251, 251, 251); text-decoration-thickness: initial; text-decoration-style: initial; text-decoration-color: initial; float: none; display: inline !important;&quot;&gt;64 x 32&lt;/span&gt;" style="text;whiteSpace=wrap;html=1;fontSize=12;fontFamily=Georgia;fontColor=#000000;" parent="1" vertex="1">
          <mxGeometry x="1108" y="117.49000000000001" width="54" height="40" as="geometry" />
        </mxCell>
        <mxCell id="jZx25Ely4Z8WffF3_oc5-68" value="&lt;font style=&quot;font-size: 14px;&quot;&gt;&lt;b&gt;Амплітудно-фазова інтерпретація&lt;/b&gt;&lt;/font&gt;" style="edgeStyle=orthogonalEdgeStyle;rounded=0;orthogonalLoop=1;jettySize=auto;html=1;exitX=0.5;exitY=0;exitDx=0;exitDy=0;endArrow=none;endFill=0;" edge="1" parent="1" source="hZlWTmnkjhMwvSSbGk0G-59">
          <mxGeometry x="0.0597" y="-15" relative="1" as="geometry">
            <mxPoint x="140" y="95" as="targetPoint" />
            <mxPoint y="-1" as="offset" />
          </mxGeometry>
        </mxCell>
        <mxCell id="hZlWTmnkjhMwvSSbGk0G-59" value="64 x 1024 x 2" style="text;html=1;strokeColor=none;fillColor=none;align=center;verticalAlign=middle;whiteSpace=wrap;rounded=0;fontFamily=Georgia;rotation=-90;fontColor=#000000;" parent="1" vertex="1">
          <mxGeometry x="340" y="80" width="99" height="30" as="geometry" />
        </mxCell>
        <mxCell id="hZlWTmnkjhMwvSSbGk0G-62" value="" style="shape=cube;whiteSpace=wrap;html=1;boundedLbl=1;backgroundOutline=1;darkOpacity=0.05;darkOpacity2=0.1;size=110;direction=east;flipH=1;fillColor=#FFFFFF;strokeColor=default;fontFamily=Georgia;fontColor=#000000;" parent="1" vertex="1">
          <mxGeometry x="416.5" y="-67.44999999999999" width="129" height="210" as="geometry" />
        </mxCell>
        <mxCell id="hZlWTmnkjhMwvSSbGk0G-73" value="" style="shape=cube;whiteSpace=wrap;html=1;boundedLbl=1;backgroundOutline=1;darkOpacity=0.05;darkOpacity2=0.1;size=108;direction=east;flipH=1;fillColor=default;strokeColor=default;fontFamily=Georgia;fontColor=#000000;" parent="1" vertex="1">
          <mxGeometry x="444.5" y="-68.47" width="130" height="210" as="geometry" />
        </mxCell>
        <mxCell id="hZlWTmnkjhMwvSSbGk0G-76" value="" style="shape=cube;whiteSpace=wrap;html=1;boundedLbl=1;backgroundOutline=1;darkOpacity=0.05;darkOpacity2=0.1;size=108;direction=east;flipH=1;fillColor=default;strokeColor=default;fontFamily=Georgia;fontColor=#000000;" parent="1" vertex="1">
          <mxGeometry x="430" y="163.38" width="130" height="210" as="geometry" />
        </mxCell>
        <mxCell id="hZlWTmnkjhMwvSSbGk0G-68" value="" style="shape=cube;whiteSpace=wrap;html=1;boundedLbl=1;backgroundOutline=1;darkOpacity=0.05;darkOpacity2=0.1;size=110;direction=east;flipH=1;fillColor=default;strokeColor=default;fontFamily=Georgia;fontColor=#000000;" parent="1" vertex="1">
          <mxGeometry x="464.5" y="152.7" width="135.5" height="223.56" as="geometry" />
        </mxCell>
        <mxCell id="hZlWTmnkjhMwvSSbGk0G-69" value="" style="shape=cube;whiteSpace=wrap;html=1;boundedLbl=1;backgroundOutline=1;darkOpacity=0.05;darkOpacity2=0.1;size=108;direction=east;flipH=1;fillColor=default;strokeColor=default;fontFamily=Georgia;fontColor=#000000;" parent="1" vertex="1">
          <mxGeometry x="500" y="154.75" width="130" height="221.51" as="geometry" />
        </mxCell>
        <mxCell id="hZlWTmnkjhMwvSSbGk0G-77" value="" style="shape=cube;whiteSpace=wrap;html=1;boundedLbl=1;backgroundOutline=1;darkOpacity=0.05;darkOpacity2=0.1;size=110;direction=east;flipH=1;fillColor=default;strokeColor=default;fontFamily=Georgia;fontColor=#000000;" parent="1" vertex="1">
          <mxGeometry x="474.5" y="-75.25000000000003" width="135.5" height="223.56" as="geometry" />
        </mxCell>
        <mxCell id="hZlWTmnkjhMwvSSbGk0G-78" value="" style="shape=cube;whiteSpace=wrap;html=1;boundedLbl=1;backgroundOutline=1;darkOpacity=0.05;darkOpacity2=0.1;size=108;direction=east;flipH=1;fillColor=default;strokeColor=default;fontFamily=Georgia;fontColor=#000000;" parent="1" vertex="1">
          <mxGeometry x="510" y="-73.19999999999999" width="130" height="221.51" as="geometry" />
        </mxCell>
        <mxCell id="hZlWTmnkjhMwvSSbGk0G-79" value="" style="shape=cube;whiteSpace=wrap;html=1;boundedLbl=1;backgroundOutline=1;darkOpacity=0.05;darkOpacity2=0.1;size=110;direction=east;flipH=1;fillColor=default;strokeColor=default;fontFamily=Georgia;fontColor=#000000;" parent="1" vertex="1">
          <mxGeometry x="530" y="139" width="134.5" height="251" as="geometry" />
        </mxCell>
        <mxCell id="hZlWTmnkjhMwvSSbGk0G-80" value="" style="shape=cube;whiteSpace=wrap;html=1;boundedLbl=1;backgroundOutline=1;darkOpacity=0.05;darkOpacity2=0.1;size=108;direction=east;flipH=1;fillColor=default;strokeColor=default;fontFamily=Georgia;fontColor=#000000;" parent="1" vertex="1">
          <mxGeometry x="560" y="142.88" width="130" height="251" as="geometry" />
        </mxCell>
        <mxCell id="hZlWTmnkjhMwvSSbGk0G-81" value="" style="shape=cube;whiteSpace=wrap;html=1;boundedLbl=1;backgroundOutline=1;darkOpacity=0.05;darkOpacity2=0.1;size=110;direction=east;flipH=1;fillColor=default;strokeColor=default;fontFamily=Georgia;fontColor=#000000;" parent="1" vertex="1">
          <mxGeometry x="545.5" y="-84.00000000000001" width="134.5" height="251" as="geometry" />
        </mxCell>
        <mxCell id="hZlWTmnkjhMwvSSbGk0G-82" value="" style="shape=cube;whiteSpace=wrap;html=1;boundedLbl=1;backgroundOutline=1;darkOpacity=0.05;darkOpacity2=0.1;size=108;direction=east;flipH=1;fillColor=default;strokeColor=default;fontFamily=Georgia;fontColor=#000000;" parent="1" vertex="1">
          <mxGeometry x="577.25" y="-81.00000000000001" width="130" height="251" as="geometry" />
        </mxCell>
        <mxCell id="hZlWTmnkjhMwvSSbGk0G-83" value="" style="shape=cube;whiteSpace=wrap;html=1;boundedLbl=1;backgroundOutline=1;darkOpacity=0.05;darkOpacity2=0.1;size=110;direction=east;flipH=1;fillColor=default;strokeColor=default;fontFamily=Georgia;fontColor=#000000;" parent="1" vertex="1">
          <mxGeometry x="600" y="131.01" width="140" height="268.99" as="geometry" />
        </mxCell>
        <mxCell id="hZlWTmnkjhMwvSSbGk0G-84" value="" style="shape=cube;whiteSpace=wrap;html=1;boundedLbl=1;backgroundOutline=1;darkOpacity=0.05;darkOpacity2=0.1;size=108;direction=east;flipH=1;fillColor=default;strokeColor=default;fontFamily=Georgia;fontColor=#000000;" parent="1" vertex="1">
          <mxGeometry x="637" y="133.89" width="135.5" height="268.99" as="geometry" />
        </mxCell>
        <mxCell id="hZlWTmnkjhMwvSSbGk0G-86" value="" style="shape=cube;whiteSpace=wrap;html=1;boundedLbl=1;backgroundOutline=1;darkOpacity=0.05;darkOpacity2=0.1;size=110;direction=east;flipH=1;fillColor=default;strokeColor=default;fontFamily=Georgia;fontColor=#000000;" parent="1" vertex="1">
          <mxGeometry x="610" y="-90.68000000000002" width="140" height="268.99" as="geometry" />
        </mxCell>
        <mxCell id="hZlWTmnkjhMwvSSbGk0G-87" value="" style="shape=cube;whiteSpace=wrap;html=1;boundedLbl=1;backgroundOutline=1;darkOpacity=0.05;darkOpacity2=0.1;size=108;direction=east;flipH=1;fillColor=default;strokeColor=default;fontFamily=Georgia;fontColor=#000000;" parent="1" vertex="1">
          <mxGeometry x="650" y="-92.73000000000002" width="135.5" height="268.99" as="geometry" />
        </mxCell>
        <mxCell id="hZlWTmnkjhMwvSSbGk0G-88" value="" style="shape=cube;whiteSpace=wrap;html=1;boundedLbl=1;backgroundOutline=1;darkOpacity=0.05;darkOpacity2=0.1;size=110;direction=east;flipH=1;fillColor=default;strokeColor=default;fontFamily=Georgia;fontColor=#000000;" parent="1" vertex="1">
          <mxGeometry x="680" y="129" width="140" height="291" as="geometry" />
        </mxCell>
        <mxCell id="hZlWTmnkjhMwvSSbGk0G-89" value="" style="shape=cube;whiteSpace=wrap;html=1;boundedLbl=1;backgroundOutline=1;darkOpacity=0.05;darkOpacity2=0.1;size=108;direction=east;flipH=1;fillColor=default;strokeColor=default;fontFamily=Georgia;fontColor=#000000;" parent="1" vertex="1">
          <mxGeometry x="720" y="129" width="135.5" height="291" as="geometry" />
        </mxCell>
        <mxCell id="hZlWTmnkjhMwvSSbGk0G-90" value="" style="shape=cube;whiteSpace=wrap;html=1;boundedLbl=1;backgroundOutline=1;darkOpacity=0.05;darkOpacity2=0.1;size=110;direction=east;flipH=1;fillColor=default;strokeColor=default;fontFamily=Georgia;fontColor=#000000;" parent="1" vertex="1">
          <mxGeometry x="700" y="-101" width="140" height="291" as="geometry" />
        </mxCell>
        <mxCell id="hZlWTmnkjhMwvSSbGk0G-91" value="" style="shape=cube;whiteSpace=wrap;html=1;boundedLbl=1;backgroundOutline=1;darkOpacity=0.05;darkOpacity2=0.1;size=108;direction=east;flipH=1;fillColor=default;strokeColor=default;fontFamily=Georgia;fontColor=#000000;" parent="1" vertex="1">
          <mxGeometry x="740" y="-101" width="135.5" height="291" as="geometry" />
        </mxCell>
        <mxCell id="hZlWTmnkjhMwvSSbGk0G-92" value="" style="shape=cube;whiteSpace=wrap;html=1;boundedLbl=1;backgroundOutline=1;darkOpacity=0.05;darkOpacity2=0.1;size=70;direction=east;flipH=1;fillColor=default;strokeColor=default;fontFamily=Georgia;" parent="1" vertex="1">
          <mxGeometry x="864.5" y="68.31" width="80" height="91.69" as="geometry" />
        </mxCell>
        <mxCell id="hZlWTmnkjhMwvSSbGk0G-94" value="Блок 4 - Concatenation" style="text;html=1;strokeColor=none;fillColor=none;align=left;verticalAlign=middle;whiteSpace=wrap;rounded=0;fontStyle=1;fontFamily=Georgia;" parent="1" vertex="1">
          <mxGeometry x="927.5" y="290.75" width="268.5" height="23.88" as="geometry" />
        </mxCell>
        <mxCell id="jZx25Ely4Z8WffF3_oc5-59" style="edgeStyle=orthogonalEdgeStyle;rounded=0;orthogonalLoop=1;jettySize=auto;html=1;exitX=0;exitY=0;exitDx=0;exitDy=0;exitPerimeter=0;endArrow=none;endFill=0;" edge="1" parent="1" source="hZlWTmnkjhMwvSSbGk0G-95">
          <mxGeometry relative="1" as="geometry">
            <mxPoint x="1000" y="-100" as="targetPoint" />
            <Array as="points">
              <mxPoint x="940" y="-30" />
              <mxPoint x="940" y="-100" />
            </Array>
          </mxGeometry>
        </mxCell>
        <mxCell id="jZx25Ely4Z8WffF3_oc5-60" value="&lt;b&gt;&lt;font style=&quot;font-size: 14px;&quot;&gt;3&lt;/font&gt;&lt;/b&gt;" style="edgeLabel;html=1;align=center;verticalAlign=middle;resizable=0;points=[];" vertex="1" connectable="0" parent="jZx25Ely4Z8WffF3_oc5-59">
          <mxGeometry x="0.7318" y="-1" relative="1" as="geometry">
            <mxPoint x="21" y="-8" as="offset" />
          </mxGeometry>
        </mxCell>
        <mxCell id="hZlWTmnkjhMwvSSbGk0G-95" value="" style="shape=cube;whiteSpace=wrap;html=1;boundedLbl=1;backgroundOutline=1;darkOpacity=0.05;darkOpacity2=0.1;size=100;direction=east;flipH=1;fillColor=default;strokeColor=default;fontFamily=Georgia;fontColor=#000000;" parent="1" vertex="1">
          <mxGeometry x="785.5" y="-30" width="113" height="120" as="geometry" />
        </mxCell>
        <mxCell id="hZlWTmnkjhMwvSSbGk0G-98" value="&amp;nbsp;Блок 3 - Flatten" style="text;html=1;strokeColor=none;fillColor=none;align=left;verticalAlign=middle;whiteSpace=wrap;rounded=0;fontStyle=1;fontFamily=Georgia;" parent="1" vertex="1">
          <mxGeometry x="926.5" y="261.64" width="219.5" height="23.88" as="geometry" />
        </mxCell>
        <mxCell id="hZlWTmnkjhMwvSSbGk0G-99" value="" style="shape=cube;whiteSpace=wrap;html=1;boundedLbl=1;backgroundOutline=1;darkOpacity=0.05;darkOpacity2=0.1;size=100;direction=east;flipH=1;fillColor=default;strokeColor=default;fontFamily=Georgia;fontColor=#000000;" parent="1" vertex="1">
          <mxGeometry x="775.5" y="199.75" width="113" height="120" as="geometry" />
        </mxCell>
        <mxCell id="jZx25Ely4Z8WffF3_oc5-66" value="&lt;b&gt;&lt;font style=&quot;font-size: 14px;&quot;&gt;Вхідний I/Q кадри&lt;/font&gt;&lt;/b&gt;" style="edgeStyle=orthogonalEdgeStyle;rounded=0;orthogonalLoop=1;jettySize=auto;html=1;exitX=1;exitY=0;exitDx=0;exitDy=0;endArrow=none;endFill=0;" edge="1" parent="1" source="hZlWTmnkjhMwvSSbGk0G-103">
          <mxGeometry x="0.533" y="-10" relative="1" as="geometry">
            <mxPoint x="220" y="240" as="targetPoint" />
            <Array as="points">
              <mxPoint x="365" y="240" />
              <mxPoint x="240" y="240" />
            </Array>
            <mxPoint as="offset" />
          </mxGeometry>
        </mxCell>
        <mxCell id="hZlWTmnkjhMwvSSbGk0G-103" value="64 x 1024 x 2" style="text;html=1;strokeColor=none;fillColor=none;align=center;verticalAlign=middle;whiteSpace=wrap;rounded=0;fontFamily=Georgia;rotation=-90;fontColor=#000000;" parent="1" vertex="1">
          <mxGeometry x="330" y="294.13" width="99" height="30" as="geometry" />
        </mxCell>
        <mxCell id="hZlWTmnkjhMwvSSbGk0G-104" value="64 x 1020 x 64" style="text;html=1;strokeColor=none;fillColor=none;align=center;verticalAlign=middle;whiteSpace=wrap;rounded=0;fontFamily=Georgia;rotation=-90;fontColor=#000000;" parent="1" vertex="1">
          <mxGeometry x="360" y="308.51" width="99" height="30" as="geometry" />
        </mxCell>
        <mxCell id="hZlWTmnkjhMwvSSbGk0G-105" value="64 x 1020 x 64" style="text;html=1;strokeColor=none;fillColor=none;align=center;verticalAlign=middle;whiteSpace=wrap;rounded=0;fontFamily=Georgia;rotation=-90;fontColor=#000000;" parent="1" vertex="1">
          <mxGeometry x="375.5" y="74.75" width="99" height="30" as="geometry" />
        </mxCell>
        <mxCell id="hZlWTmnkjhMwvSSbGk0G-107" value="64 x 510 x 64" style="text;html=1;strokeColor=none;fillColor=none;align=center;verticalAlign=middle;whiteSpace=wrap;rounded=0;fontFamily=Georgia;rotation=-90;fontColor=#000000;" parent="1" vertex="1">
          <mxGeometry x="390" y="308.51" width="99" height="30" as="geometry" />
        </mxCell>
        <mxCell id="hZlWTmnkjhMwvSSbGk0G-108" value="64 x 510 x 64" style="text;html=1;strokeColor=none;fillColor=none;align=center;verticalAlign=middle;whiteSpace=wrap;rounded=0;fontFamily=Georgia;rotation=-90;fontColor=#000000;" parent="1" vertex="1">
          <mxGeometry x="411" y="79.48999999999998" width="99" height="30" as="geometry" />
        </mxCell>
        <mxCell id="hZlWTmnkjhMwvSSbGk0G-109" value="64 x 508 x 128" style="text;html=1;strokeColor=none;fillColor=none;align=center;verticalAlign=middle;whiteSpace=wrap;rounded=0;fontFamily=Georgia;rotation=-90;fontColor=#000000;" parent="1" vertex="1">
          <mxGeometry x="429" y="308.51" width="99" height="30" as="geometry" />
        </mxCell>
        <mxCell id="hZlWTmnkjhMwvSSbGk0G-111" value="64 x 508 x 128" style="text;html=1;strokeColor=none;fillColor=none;align=center;verticalAlign=middle;whiteSpace=wrap;rounded=0;fontFamily=Georgia;rotation=-90;fontColor=#000000;" parent="1" vertex="1">
          <mxGeometry x="439" y="81.35999999999999" width="99" height="30" as="geometry" />
        </mxCell>
        <mxCell id="hZlWTmnkjhMwvSSbGk0G-112" value="64 x 254 x 128" style="text;html=1;strokeColor=none;fillColor=none;align=center;verticalAlign=middle;whiteSpace=wrap;rounded=0;fontFamily=Georgia;rotation=-90;fontColor=#000000;" parent="1" vertex="1">
          <mxGeometry x="464.5" y="308.51" width="99" height="30" as="geometry" />
        </mxCell>
        <mxCell id="hZlWTmnkjhMwvSSbGk0G-113" value="64 x 254 x 128" style="text;html=1;strokeColor=none;fillColor=none;align=center;verticalAlign=middle;whiteSpace=wrap;rounded=0;fontFamily=Georgia;rotation=-90;fontColor=#000000;" parent="1" vertex="1">
          <mxGeometry x="474.5" y="79.48999999999998" width="99" height="30" as="geometry" />
        </mxCell>
        <mxCell id="hZlWTmnkjhMwvSSbGk0G-114" value="64 x 252 x 128" style="text;html=1;strokeColor=none;fillColor=none;align=center;verticalAlign=middle;whiteSpace=wrap;rounded=0;fontFamily=Georgia;rotation=-90;fontColor=#000000;" parent="1" vertex="1">
          <mxGeometry x="492.75" y="310.51" width="99" height="30" as="geometry" />
        </mxCell>
        <mxCell id="hZlWTmnkjhMwvSSbGk0G-115" value="64 x 252 x 128" style="text;html=1;strokeColor=none;fillColor=none;align=center;verticalAlign=middle;whiteSpace=wrap;rounded=0;fontFamily=Georgia;rotation=-90;fontColor=#000000;" parent="1" vertex="1">
          <mxGeometry x="510" y="81.35999999999999" width="99" height="30" as="geometry" />
        </mxCell>
        <mxCell id="hZlWTmnkjhMwvSSbGk0G-116" value="64 x 126 x 128" style="text;html=1;strokeColor=none;fillColor=none;align=center;verticalAlign=middle;whiteSpace=wrap;rounded=0;fontFamily=Georgia;rotation=-90;fontColor=#000000;" parent="1" vertex="1">
          <mxGeometry x="525.5" y="310.51" width="99" height="30" as="geometry" />
        </mxCell>
        <mxCell id="hZlWTmnkjhMwvSSbGk0G-117" value="64 x 126 x 128" style="text;html=1;strokeColor=none;fillColor=none;align=center;verticalAlign=middle;whiteSpace=wrap;rounded=0;fontFamily=Georgia;rotation=-90;fontColor=#000000;" parent="1" vertex="1">
          <mxGeometry x="538" y="85.73999999999998" width="99" height="30" as="geometry" />
        </mxCell>
        <mxCell id="hZlWTmnkjhMwvSSbGk0G-118" value="64 x 124 x 256" style="text;html=1;strokeColor=none;fillColor=none;align=center;verticalAlign=middle;whiteSpace=wrap;rounded=0;fontFamily=Georgia;rotation=-90;fontColor=#000000;" parent="1" vertex="1">
          <mxGeometry x="565.5" y="310.51" width="99" height="30" as="geometry" />
        </mxCell>
        <mxCell id="hZlWTmnkjhMwvSSbGk0G-119" value="64 x 124 x 256" style="text;html=1;strokeColor=none;fillColor=none;align=center;verticalAlign=middle;whiteSpace=wrap;rounded=0;fontFamily=Georgia;rotation=-90;fontColor=#000000;" parent="1" vertex="1">
          <mxGeometry x="575.5" y="74.75" width="99" height="30" as="geometry" />
        </mxCell>
        <mxCell id="hZlWTmnkjhMwvSSbGk0G-120" value="64 x 62 x 256" style="text;html=1;strokeColor=none;fillColor=none;align=center;verticalAlign=middle;whiteSpace=wrap;rounded=0;fontFamily=Georgia;rotation=-90;fontColor=#000000;" parent="1" vertex="1">
          <mxGeometry x="601" y="310.51" width="99" height="30" as="geometry" />
        </mxCell>
        <mxCell id="hZlWTmnkjhMwvSSbGk0G-121" value="64 x 62 x 256" style="text;html=1;strokeColor=none;fillColor=none;align=center;verticalAlign=middle;whiteSpace=wrap;rounded=0;fontFamily=Georgia;rotation=-90;fontColor=#000000;" parent="1" vertex="1">
          <mxGeometry x="620.5" y="81.35999999999999" width="99" height="30" as="geometry" />
        </mxCell>
        <mxCell id="hZlWTmnkjhMwvSSbGk0G-122" value="64 x 60 x 512" style="text;html=1;strokeColor=none;fillColor=none;align=center;verticalAlign=middle;whiteSpace=wrap;rounded=0;fontFamily=Georgia;rotation=-90;fontColor=#000000;" parent="1" vertex="1">
          <mxGeometry x="641" y="314.63" width="99" height="30" as="geometry" />
        </mxCell>
        <mxCell id="hZlWTmnkjhMwvSSbGk0G-123" value="64 x 60 x 512" style="text;html=1;strokeColor=none;fillColor=none;align=center;verticalAlign=middle;whiteSpace=wrap;rounded=0;fontFamily=Georgia;rotation=-90;fontColor=#000000;" parent="1" vertex="1">
          <mxGeometry x="664.5" y="88.35999999999999" width="99" height="30" as="geometry" />
        </mxCell>
        <mxCell id="hZlWTmnkjhMwvSSbGk0G-124" value="64 x 30 x 512" style="text;html=1;strokeColor=none;fillColor=none;align=center;verticalAlign=middle;whiteSpace=wrap;rounded=0;fontFamily=Georgia;rotation=-90;fontColor=#000000;" parent="1" vertex="1">
          <mxGeometry x="680" y="314.63" width="99" height="30" as="geometry" />
        </mxCell>
        <mxCell id="hZlWTmnkjhMwvSSbGk0G-125" value="64 x 30 x 512" style="text;html=1;strokeColor=none;fillColor=none;align=center;verticalAlign=middle;whiteSpace=wrap;rounded=0;fontFamily=Georgia;rotation=-90;fontColor=#000000;" parent="1" vertex="1">
          <mxGeometry x="700.5" y="87.18" width="99" height="30" as="geometry" />
        </mxCell>
        <mxCell id="hZlWTmnkjhMwvSSbGk0G-126" value="64 x 15360" style="text;html=1;strokeColor=none;fillColor=none;align=center;verticalAlign=middle;whiteSpace=wrap;rounded=0;fontFamily=Georgia;rotation=-45;fontColor=#000000;" parent="1" vertex="1">
          <mxGeometry x="776.5" y="254.63" width="99" height="30" as="geometry" />
        </mxCell>
        <mxCell id="hZlWTmnkjhMwvSSbGk0G-127" value="64 x 15360" style="text;html=1;strokeColor=none;fillColor=none;align=center;verticalAlign=middle;whiteSpace=wrap;rounded=0;fontFamily=Georgia;rotation=-45;fontColor=#000000;" parent="1" vertex="1">
          <mxGeometry x="792.5" y="22.549999999999983" width="99" height="30" as="geometry" />
        </mxCell>
        <mxCell id="jZx25Ely4Z8WffF3_oc5-61" style="edgeStyle=orthogonalEdgeStyle;rounded=0;orthogonalLoop=1;jettySize=auto;html=1;exitX=1;exitY=0.25;exitDx=0;exitDy=0;endArrow=none;endFill=0;" edge="1" parent="1" source="hZlWTmnkjhMwvSSbGk0G-128">
          <mxGeometry relative="1" as="geometry">
            <mxPoint x="1030" as="targetPoint" />
            <Array as="points">
              <mxPoint x="934" />
            </Array>
          </mxGeometry>
        </mxCell>
        <mxCell id="jZx25Ely4Z8WffF3_oc5-62" value="&lt;b&gt;&lt;font style=&quot;font-size: 14px;&quot;&gt;4&lt;/font&gt;&lt;/b&gt;" style="edgeLabel;html=1;align=center;verticalAlign=middle;resizable=0;points=[];" vertex="1" connectable="0" parent="jZx25Ely4Z8WffF3_oc5-61">
          <mxGeometry x="0.6674" y="3" relative="1" as="geometry">
            <mxPoint x="36" y="-11" as="offset" />
          </mxGeometry>
        </mxCell>
        <mxCell id="hZlWTmnkjhMwvSSbGk0G-128" value="64 x 30720" style="text;html=1;strokeColor=none;fillColor=none;align=center;verticalAlign=middle;whiteSpace=wrap;rounded=0;fontFamily=Georgia;rotation=-45;fontColor=#000000;" parent="1" vertex="1">
          <mxGeometry x="855" y="103.88999999999999" width="99" height="30" as="geometry" />
        </mxCell>
        <mxCell id="jZx25Ely4Z8WffF3_oc5-46" value="" style="shape=curlyBracket;whiteSpace=wrap;html=1;rounded=1;flipH=1;labelPosition=right;verticalLabelPosition=middle;align=left;verticalAlign=middle;rotation=-90;" vertex="1" parent="1">
          <mxGeometry x="545.5" y="-118.45" width="13.5" height="45.25" as="geometry" />
        </mxCell>
        <mxCell id="jZx25Ely4Z8WffF3_oc5-47" value="" style="shape=curlyBracket;whiteSpace=wrap;html=1;rounded=1;flipH=1;labelPosition=right;verticalLabelPosition=middle;align=left;verticalAlign=middle;rotation=-90;" vertex="1" parent="1">
          <mxGeometry x="608.25" y="-126.25" width="13.5" height="45.25" as="geometry" />
        </mxCell>
        <mxCell id="jZx25Ely4Z8WffF3_oc5-48" value="" style="shape=curlyBracket;whiteSpace=wrap;html=1;rounded=1;flipH=1;labelPosition=right;verticalLabelPosition=middle;align=left;verticalAlign=middle;rotation=-90;" vertex="1" parent="1">
          <mxGeometry x="676.5" y="-129.25" width="13.5" height="45.25" as="geometry" />
        </mxCell>
        <mxCell id="jZx25Ely4Z8WffF3_oc5-49" value="" style="shape=curlyBracket;whiteSpace=wrap;html=1;rounded=1;flipH=1;labelPosition=right;verticalLabelPosition=middle;align=left;verticalAlign=middle;rotation=-90;" vertex="1" parent="1">
          <mxGeometry x="743.25" y="-146.25" width="13.5" height="45.25" as="geometry" />
        </mxCell>
        <mxCell id="jZx25Ely4Z8WffF3_oc5-50" value="" style="shape=curlyBracket;whiteSpace=wrap;html=1;rounded=1;flipH=1;labelPosition=right;verticalLabelPosition=middle;align=left;verticalAlign=middle;rotation=-90;" vertex="1" parent="1">
          <mxGeometry x="835.25" y="-146.25" width="13.5" height="45.25" as="geometry" />
        </mxCell>
        <mxCell id="jZx25Ely4Z8WffF3_oc5-51" value="" style="shape=curlyBracket;whiteSpace=wrap;html=1;rounded=1;flipH=1;labelPosition=right;verticalLabelPosition=middle;align=left;verticalAlign=middle;rotation=-90;" vertex="1" parent="1">
          <mxGeometry x="1039.81" y="-14.42" width="13.5" height="191.36" as="geometry" />
        </mxCell>
        <mxCell id="jZx25Ely4Z8WffF3_oc5-53" value="&lt;span style=&quot;color: rgb(0, 0, 0); font-family: Georgia; font-style: normal; font-variant-ligatures: normal; font-variant-caps: normal; font-weight: 700; letter-spacing: normal; orphans: 2; text-align: left; text-indent: 0px; text-transform: none; widows: 2; word-spacing: 0px; -webkit-text-stroke-width: 0px; white-space: normal; background-color: rgb(251, 251, 251); text-decoration-thickness: initial; text-decoration-style: initial; text-decoration-color: initial; float: none; display: inline !important;&quot;&gt;&lt;font style=&quot;font-size: 14px;&quot;&gt;1 + 2&lt;/font&gt;&lt;/span&gt;" style="text;whiteSpace=wrap;html=1;" vertex="1" parent="1">
          <mxGeometry x="531.25" y="-141" width="42" height="40" as="geometry" />
        </mxCell>
        <mxCell id="jZx25Ely4Z8WffF3_oc5-54" value="&lt;span style=&quot;color: rgb(0, 0, 0); font-family: Georgia; font-style: normal; font-variant-ligatures: normal; font-variant-caps: normal; font-weight: 700; letter-spacing: normal; orphans: 2; text-align: left; text-indent: 0px; text-transform: none; widows: 2; word-spacing: 0px; -webkit-text-stroke-width: 0px; white-space: normal; background-color: rgb(251, 251, 251); text-decoration-thickness: initial; text-decoration-style: initial; text-decoration-color: initial; float: none; display: inline !important;&quot;&gt;&lt;font style=&quot;font-size: 14px;&quot;&gt;1 + 2&lt;/font&gt;&lt;/span&gt;" style="text;whiteSpace=wrap;html=1;" vertex="1" parent="1">
          <mxGeometry x="595" y="-146.25" width="40" height="40" as="geometry" />
        </mxCell>
        <mxCell id="jZx25Ely4Z8WffF3_oc5-55" value="&lt;span style=&quot;color: rgb(0, 0, 0); font-family: Georgia; font-style: normal; font-variant-ligatures: normal; font-variant-caps: normal; font-weight: 700; letter-spacing: normal; orphans: 2; text-align: left; text-indent: 0px; text-transform: none; widows: 2; word-spacing: 0px; -webkit-text-stroke-width: 0px; white-space: normal; background-color: rgb(251, 251, 251); text-decoration-thickness: initial; text-decoration-style: initial; text-decoration-color: initial; float: none; display: inline !important;&quot;&gt;&lt;font style=&quot;font-size: 14px;&quot;&gt;1 + 2&lt;/font&gt;&lt;/span&gt;" style="text;whiteSpace=wrap;html=1;" vertex="1" parent="1">
          <mxGeometry x="663.75" y="-146.25" width="39" height="40" as="geometry" />
        </mxCell>
        <mxCell id="jZx25Ely4Z8WffF3_oc5-56" value="&lt;span style=&quot;color: rgb(0, 0, 0); font-family: Georgia; font-style: normal; font-variant-ligatures: normal; font-variant-caps: normal; font-weight: 700; letter-spacing: normal; orphans: 2; text-align: left; text-indent: 0px; text-transform: none; widows: 2; word-spacing: 0px; -webkit-text-stroke-width: 0px; white-space: normal; background-color: rgb(251, 251, 251); text-decoration-thickness: initial; text-decoration-style: initial; text-decoration-color: initial; float: none; display: inline !important;&quot;&gt;&lt;font style=&quot;font-size: 14px;&quot;&gt;1 + 2&lt;/font&gt;&lt;/span&gt;" style="text;whiteSpace=wrap;html=1;" vertex="1" parent="1">
          <mxGeometry x="734" y="-166.25" width="36" height="40" as="geometry" />
        </mxCell>
        <mxCell id="jZx25Ely4Z8WffF3_oc5-57" value="&lt;span style=&quot;color: rgb(0, 0, 0); font-family: Georgia; font-style: normal; font-variant-ligatures: normal; font-variant-caps: normal; font-weight: 700; letter-spacing: normal; orphans: 2; text-align: left; text-indent: 0px; text-transform: none; widows: 2; word-spacing: 0px; -webkit-text-stroke-width: 0px; white-space: normal; background-color: rgb(251, 251, 251); text-decoration-thickness: initial; text-decoration-style: initial; text-decoration-color: initial; float: none; display: inline !important;&quot;&gt;&lt;font style=&quot;font-size: 14px;&quot;&gt;1 + 2&lt;/font&gt;&lt;/span&gt;" style="text;whiteSpace=wrap;html=1;" vertex="1" parent="1">
          <mxGeometry x="820.5" y="-166.25" width="44" height="40" as="geometry" />
        </mxCell>
        <mxCell id="jZx25Ely4Z8WffF3_oc5-63" value="&lt;span style=&quot;color: rgb(0, 0, 0); font-family: Georgia; font-style: normal; font-variant-ligatures: normal; font-variant-caps: normal; font-weight: 700; letter-spacing: normal; orphans: 2; text-align: left; text-indent: 0px; text-transform: none; widows: 2; word-spacing: 0px; -webkit-text-stroke-width: 0px; white-space: normal; background-color: rgb(251, 251, 251); text-decoration-thickness: initial; text-decoration-style: initial; text-decoration-color: initial; float: none; display: inline !important;&quot;&gt;&lt;font style=&quot;font-size: 14px;&quot;&gt;5&lt;/font&gt;&lt;/span&gt;" style="text;whiteSpace=wrap;html=1;" vertex="1" parent="1">
          <mxGeometry x="1039.81" y="34.75" width="39" height="40" as="geometry" />
        </mxCell>
        <mxCell id="jZx25Ely4Z8WffF3_oc5-64" value="&lt;span style=&quot;color: rgb(0, 0, 0); font-family: Georgia; font-style: normal; font-variant-ligatures: normal; font-variant-caps: normal; font-weight: 700; letter-spacing: normal; orphans: 2; text-align: left; text-indent: 0px; text-transform: none; widows: 2; word-spacing: 0px; -webkit-text-stroke-width: 0px; white-space: normal; background-color: rgb(251, 251, 251); text-decoration-thickness: initial; text-decoration-style: initial; text-decoration-color: initial; float: none; display: inline !important;&quot;&gt;&lt;font style=&quot;font-size: 14px;&quot;&gt;6&lt;/font&gt;&lt;/span&gt;" style="text;whiteSpace=wrap;html=1;" vertex="1" parent="1">
          <mxGeometry x="1196" y="34.750000000000014" width="39" height="40" as="geometry" />
        </mxCell>
      </root>
    </mxGraphModel>
  </diagram>
</mxfile>
